<svg width="20" height="18" viewBox="0 0 20 18" fill="none" xmlns="http://www.w3.org/2000/svg">
<path d="M19.3 7.83986C19.69 7.83986 20 7.52986 20 7.13986V6.20986C20 2.10986 18.75 0.859863 14.65 0.859863H5.35C1.25 0.859863 0 2.10986 0 6.20986V6.67986C0 7.06986 0.31 7.37986 0.7 7.37986C1.6 7.37986 2.33 8.10986 2.33 9.00986C2.33 9.90986 1.6 10.6299 0.7 10.6299C0.31 10.6299 0 10.9399 0 11.3299V11.7999C0 15.8999 1.25 17.1499 5.35 17.1499H14.65C18.75 17.1499 20 15.8999 20 11.7999C20 11.4099 19.69 11.0999 19.3 11.0999C18.4 11.0999 17.67 10.3699 17.67 9.46986C17.67 8.56986 18.4 7.83986 19.3 7.83986ZM7 5.87986C7.55 5.87986 8 6.32986 8 6.87986C8 7.42986 7.56 7.87986 7 7.87986C6.45 7.87986 6 7.42986 6 6.87986C6 6.32986 6.44 5.87986 7 5.87986ZM13 12.8799C12.44 12.8799 11.99 12.4299 11.99 11.8799C11.99 11.3299 12.44 10.8799 12.99 10.8799C13.54 10.8799 13.99 11.3299 13.99 11.8799C13.99 12.4299 13.56 12.8799 13 12.8799ZM13.9 6.47986L7.17 13.2099C7.02 13.3599 6.83 13.4299 6.64 13.4299C6.45 13.4299 6.26 13.3599 6.11 13.2099C5.82 12.9199 5.82 12.4399 6.11 12.1499L12.84 5.41986C13.13 5.12986 13.61 5.12986 13.9 5.41986C14.19 5.70986 14.19 6.18986 13.9 6.47986Z" fill="#889CE7"/>
</svg>
